<svg width="194" height="79" viewBox="0 0 194 79" fill="none" xmlns="http://www.w3.org/2000/svg">
<path d="M189.289 31.9549C189.514 35.4149 187.381 39.0568 182.958 42.6998C178.554 46.3268 172.02 49.8337 163.803 53.0145C147.378 59.3723 124.396 64.3639 98.7563 66.4603C73.1164 68.5566 49.7309 67.356 32.6564 63.7371C24.1143 61.9266 17.1949 59.5196 12.3681 56.6473C7.5199 53.7623 4.93713 50.506 4.71178 47.046C4.48642 43.5861 6.61989 39.9442 11.0429 36.3011C15.4464 32.6742 21.9806 29.1673 30.1976 25.9865C46.6222 19.6287 69.6044 14.6371 95.2443 12.5407C120.884 10.4444 144.27 11.645 161.344 15.2639C169.886 17.0744 176.806 19.4813 181.632 22.3537C186.481 25.2387 189.063 28.495 189.289 31.9549Z" stroke="#FB5A6D" stroke-width="1.5"/>
<path d="M189.139 51.5398C188.625 54.9531 185.76 58.0513 180.646 60.6708C175.555 63.2783 168.399 65.3211 159.662 66.6927C142.199 69.4343 118.592 69.4676 92.9944 66.1228C67.3966 62.778 44.7106 56.6959 28.7294 49.5842C20.7342 46.0263 14.4575 42.2283 10.3326 38.4166C6.1886 34.5874 4.34899 30.8745 4.86263 27.4612C5.37627 24.0478 8.24081 20.9496 13.3552 18.3301C18.4461 15.7226 25.6017 13.6798 34.3387 12.3082C51.8026 9.56663 75.4088 9.53336 101.007 12.8781C126.605 16.2229 149.291 22.305 165.272 29.4167C173.267 32.9746 179.544 36.7726 183.669 40.5843C187.813 44.4136 189.652 48.1264 189.139 51.5398Z" stroke="#FB5A6D" stroke-width="1.5"/>
</svg>
