<svg width="94" height="54" viewBox="0 0 94 54" fill="none" xmlns="http://www.w3.org/2000/svg">
<g filter="url(#filter0_d_2801_673)">
<path d="M46.1241 16.1019L44.6082 13.2468C44.1581 12.399 42.9433 12.399 42.4932 13.2468L40.9774 16.1019C40.8036 16.4292 40.4882 16.6575 40.1231 16.7204L36.7417 17.3027C35.7861 17.4673 35.4122 18.6402 36.0963 19.3274L38.4859 21.7278C38.7592 22.0023 38.8827 22.3921 38.8176 22.7739L38.2515 26.0912C38.0863 27.0589 39.0919 27.8032 39.9691 27.3626L43.0133 25.8336C43.3515 25.6637 43.75 25.6637 44.0881 25.8336L47.1323 27.3626C48.0095 27.8032 49.0151 27.0589 48.85 26.0912L48.2839 22.7739C48.2187 22.3921 48.3423 22.0023 48.6156 21.7278L51.0051 19.3274C51.6892 18.6402 51.3154 17.4673 50.3598 17.3027L46.9784 16.7204C46.6133 16.6575 46.2978 16.4292 46.1241 16.1019Z" fill="#FDFF55"/>
<g filter="url(#filter1_i_2801_673)">
<path d="M48.853 11.6566L46.4716 8.06548C45.0701 5.95209 41.9792 5.91704 40.5302 7.99811L37.9357 11.7243C37.4501 12.4217 36.7329 12.9244 35.9117 13.1429L32.2242 14.1242C29.7103 14.7932 28.7191 17.8295 30.354 19.8529L32.6967 22.7523C33.2438 23.4294 33.5264 24.2822 33.492 25.152L33.3085 29.7844C33.2051 32.3951 35.8349 34.2392 38.2541 33.2526L42.194 31.6457C43.0635 31.2911 44.0374 31.2911 44.907 31.6457L48.8468 33.2526C51.2661 34.2392 53.8959 32.3951 53.7925 29.7844L53.609 25.152C53.5745 24.2822 53.8571 23.4294 54.4042 22.7523L56.7197 19.8866C58.3616 17.8546 57.3541 14.8053 54.8248 14.1515L50.9476 13.1492C50.0891 12.9272 49.343 12.3956 48.853 11.6566Z" fill="#FCD322"/>
</g>
<path d="M49.8509 10.9949L47.4695 7.40377C45.6008 4.58591 41.4796 4.53918 39.5476 7.31394L36.9531 11.0401C36.6294 11.5051 36.1513 11.8402 35.6038 11.9859L31.9163 12.9672C28.5645 13.8592 27.2428 17.9075 29.4227 20.6054L31.7654 23.5048C32.1302 23.9562 32.3185 24.5247 32.2956 25.1046L32.1121 29.737C31.9742 33.2179 35.4806 35.6768 38.7063 34.3612L42.6462 32.7544C43.2259 32.5179 43.8751 32.5179 44.4548 32.7544L48.3947 34.3612C51.6203 35.6768 55.1267 33.2179 54.9889 29.737L54.8054 25.1046C54.7824 24.5247 54.9708 23.9562 55.3355 23.5048L57.651 20.6391C59.8401 17.9298 58.4968 13.8641 55.1245 12.9923L51.2472 11.9899C50.6749 11.842 50.1776 11.4876 49.8509 10.9949Z" stroke="white" stroke-width="2.39465" stroke-linecap="round" stroke-linejoin="round"/>
<g filter="url(#filter2_d_2801_673)">
<path d="M46.4714 15.636L45.0089 13.4422C44.3077 12.3904 42.7682 12.3729 42.0432 13.4085L40.4603 15.6698C40.2171 16.0173 39.8587 16.2675 39.4486 16.3761L37.1571 16.9827C35.8968 17.3163 35.4006 18.8393 36.2226 19.8512L37.6749 21.639C37.9504 21.9782 38.0928 22.4062 38.0754 22.8429L37.9639 25.6428C37.912 26.9469 39.2243 27.8691 40.4337 27.3785L42.8756 26.3879C43.3085 26.2122 43.7929 26.2122 44.2259 26.3879L46.6678 27.3785C47.8771 27.8691 49.1894 26.9469 49.1375 25.6428L49.026 22.8429C49.0086 22.4062 49.151 21.9782 49.4265 21.639L50.8651 19.8681C51.6906 18.8519 51.1863 17.3223 49.9184 16.9963L47.5185 16.3792C47.0898 16.2689 46.7169 16.0043 46.4714 15.636Z" fill="#FDFF55"/>
</g>
<path d="M19.1218 28.1277L17.9512 25.9228C17.6036 25.2681 16.6654 25.2681 16.3178 25.9228L15.1472 28.1277C15.013 28.3804 14.7694 28.5568 14.4874 28.6054L11.876 29.0551C11.138 29.1822 10.8493 30.0879 11.3776 30.6187L13.223 32.4725C13.4341 32.6845 13.5295 32.9855 13.4792 33.2804L13.042 35.8422C12.9145 36.5896 13.691 37.1644 14.3685 36.8241L16.7195 35.6433C16.9806 35.5121 17.2884 35.5121 17.5495 35.6433L19.9005 36.8241C20.5779 37.1644 21.3545 36.5896 21.227 35.8422L20.7898 33.2804C20.7395 32.9855 20.8349 32.6845 21.046 32.4725L22.8914 30.6187C23.4197 30.0879 23.131 29.1822 22.393 29.0551L19.7816 28.6054C19.4996 28.5568 19.256 28.3804 19.1218 28.1277Z" fill="#FDFF55"/>
<g filter="url(#filter3_i_2801_673)">
<path d="M21.2294 24.6947L19.3903 21.9213C18.308 20.2892 15.921 20.2621 14.8019 21.8693L12.7983 24.7469C12.4232 25.2855 11.8694 25.6737 11.2351 25.8425L8.38737 26.6003C6.44597 27.117 5.68046 29.4618 6.94306 31.0245L8.7523 33.2636C9.17481 33.7865 9.39305 34.4451 9.36644 35.1168L9.22475 38.6943C9.14489 40.7105 11.1758 42.1347 13.0442 41.3727L16.0868 40.1318C16.7584 39.8579 17.5104 39.8579 18.182 40.1318L21.2246 41.3727C23.093 42.1347 25.1239 40.7105 25.0441 38.6943L24.9024 35.1168C24.8758 34.4451 25.094 33.7865 25.5165 33.2636L27.3047 31.0505C28.5727 29.4812 27.7946 27.1263 25.8413 26.6214L22.847 25.8473C22.184 25.6759 21.6079 25.2654 21.2294 24.6947Z" fill="#FCD322"/>
</g>
<path d="M22.0001 24.1837L20.1609 21.4103C18.7179 19.2341 15.5351 19.198 14.0431 21.3409L12.0394 24.2185C11.7894 24.5776 11.4202 24.8364 10.9973 24.9489L8.14957 25.7068C5.56104 26.3956 4.54037 29.5221 6.22384 31.6056L8.03307 33.8447C8.31474 34.1934 8.46024 34.6324 8.4425 35.0802L8.3008 38.6577C8.19433 41.346 10.9022 43.2449 13.3934 42.2289L16.436 40.988C16.8837 40.8054 17.3851 40.8054 17.8328 40.988L20.8755 42.2289C23.3666 43.2449 26.0745 41.346 25.968 38.6577L25.8263 35.0802C25.8086 34.6324 25.9541 34.1934 26.2357 33.8447L28.0239 31.6316C29.7145 29.5393 28.6771 26.3994 26.0727 25.7261L23.0784 24.9521C22.6365 24.8378 22.2523 24.5641 22.0001 24.1837Z" stroke="white" stroke-width="1.84933" stroke-linecap="round" stroke-linejoin="round"/>
<g filter="url(#filter4_d_2801_673)">
<path d="M19.3901 27.7679L18.2606 26.0737C17.7191 25.2614 16.5301 25.2479 15.9703 26.0477L14.7479 27.794C14.56 28.0624 14.2832 28.2556 13.9665 28.3394L12.1968 28.8079C11.2235 29.0655 10.8404 30.2417 11.4752 31.0232L12.5967 32.4039C12.8095 32.6659 12.9195 32.9964 12.9061 33.3336L12.82 35.4959C12.7799 36.503 13.7933 37.2153 14.7273 36.8364L16.6131 36.0713C16.9475 35.9357 17.3215 35.9357 17.6559 36.0713L19.5417 36.8364C20.4757 37.2153 21.4891 36.503 21.449 35.4959L21.3629 33.3336C21.3495 32.9964 21.4595 32.6659 21.6723 32.4039L22.7832 31.0362C23.4207 30.2514 23.0313 29.0702 22.0521 28.8184L20.1987 28.3418C19.8677 28.2567 19.5797 28.0523 19.3901 27.7679Z" fill="#FDFF55"/>
</g>
<path d="M73.1096 28.1278L71.939 25.9229C71.5914 25.2681 70.6532 25.2681 70.3056 25.9229L69.135 28.1278C69.0008 28.3805 68.7572 28.5569 68.4752 28.6054L65.8638 29.0551C65.1258 29.1822 64.8371 30.088 65.3654 30.6187L67.2108 32.4725C67.4219 32.6845 67.5173 32.9855 67.467 33.2804L67.0298 35.8423C66.9023 36.5896 67.6788 37.1644 68.3563 36.8241L70.7073 35.6433C70.9684 35.5121 71.2762 35.5121 71.5373 35.6433L73.8883 36.8241C74.5657 37.1644 75.3423 36.5896 75.2148 35.8423L74.7776 33.2804C74.7273 32.9855 74.8227 32.6845 75.0338 32.4725L76.8791 30.6187C77.4075 30.088 77.1188 29.1822 76.3808 29.0551L73.7694 28.6054C73.4874 28.5569 73.2438 28.3805 73.1096 28.1278Z" fill="#FDFF55"/>
<g filter="url(#filter5_i_2801_673)">
<path d="M75.2172 24.6947L73.3781 21.9213C72.2958 20.2892 69.9088 20.2621 68.7897 21.8693L66.786 24.7469C66.411 25.2856 65.8572 25.6738 65.2229 25.8425L62.3752 26.6004C60.4338 27.117 59.6683 29.4619 60.9309 31.0245L62.7401 33.2636C63.1626 33.7865 63.3808 34.4451 63.3542 35.1168L63.2125 38.6944C63.1327 40.7105 65.1636 42.1347 67.0319 41.3727L70.0746 40.1318C70.7461 39.8579 71.4982 39.8579 72.1698 40.1318L75.2124 41.3727C77.0808 42.1347 79.1117 40.7105 79.0319 38.6944L78.8902 35.1168C78.8635 34.4451 79.0818 33.7865 79.5043 33.2636L81.2925 31.0505C82.5605 29.4813 81.7824 27.1264 79.8291 26.6214L76.8348 25.8473C76.1718 25.676 75.5957 25.2654 75.2172 24.6947Z" fill="#FCD322"/>
</g>
<path d="M75.9878 24.1837L74.1487 21.4103C72.7056 19.2341 69.5229 19.1981 68.0309 21.3409L66.0272 24.2186C65.7772 24.5777 65.408 24.8364 64.9851 24.949L62.1374 25.7068C59.5488 26.3957 58.5282 29.5221 60.2116 31.6056L62.0209 33.8448C62.3025 34.1934 62.448 34.6324 62.4303 35.0802L62.2886 38.6578C62.1821 41.346 64.89 43.2449 67.3811 42.2289L70.4238 40.988C70.8715 40.8054 71.3729 40.8054 71.8206 40.988L74.8632 42.2289C77.3544 43.2449 80.0623 41.346 79.9558 38.6578L79.8141 35.0802C79.7964 34.6324 79.9419 34.1934 80.2235 33.8448L82.0117 31.6317C83.7023 29.5393 82.6649 26.3994 80.0605 25.7262L77.0662 24.9521C76.6242 24.8378 76.2401 24.5641 75.9878 24.1837Z" stroke="white" stroke-width="1.84933" stroke-linecap="round" stroke-linejoin="round"/>
<g filter="url(#filter6_d_2801_673)">
<path d="M73.3779 27.768L72.2484 26.0738C71.7069 25.2615 70.5179 25.248 69.9581 26.0477L68.7357 27.7941C68.5478 28.0624 68.271 28.2557 67.9543 28.3395L66.1846 28.8079C65.2113 29.0656 64.8282 30.2418 65.463 31.0233L66.5845 32.404C66.7973 32.6659 66.9073 32.9964 66.8939 33.3337L66.8077 35.496C66.7676 36.5031 67.7811 37.2153 68.7151 36.8364L70.6009 36.0714C70.9353 35.9357 71.3093 35.9357 71.6437 36.0714L73.5295 36.8364C74.4635 37.2153 75.4769 36.5031 75.4368 35.496L75.3507 33.3337C75.3373 32.9964 75.4473 32.6659 75.6601 32.404L76.771 31.0363C77.4085 30.2515 77.0191 29.0703 76.0399 28.8185L74.1865 28.3419C73.8554 28.2568 73.5675 28.0524 73.3779 27.768Z" fill="#FDFF55"/>
</g>
<path d="M31.5215 7.66975C30.8299 6.52834 30.3489 5.98544 29.1866 5.33488C30.3958 4.60544 30.8928 4.0872 31.5215 3.00002C32.1424 4.08427 32.639 4.60415 33.8564 5.33488C32.7369 6.00856 32.2202 6.51348 31.5215 7.66975Z" fill="#F4E167"/>
<path d="M62.5605 12.8825C61.8897 11.7755 61.4233 11.249 60.296 10.6181C61.4687 9.91062 61.9508 9.40801 62.5605 8.35361C63.1626 9.40517 63.6443 9.90937 64.825 10.6181C63.7393 11.2714 63.2381 11.7611 62.5605 12.8825Z" fill="#F4E167"/>
<path d="M23.5969 11.6087C23.3035 11.1244 23.0994 10.8941 22.6063 10.6181C23.1193 10.3086 23.3302 10.0887 23.5969 9.62749C23.8603 10.0875 24.071 10.3081 24.5875 10.6181C24.1126 10.9039 23.8933 11.1181 23.5969 11.6087Z" fill="#F4E167"/>
<path d="M56.2633 7.29258C55.9699 6.80833 55.7658 6.57799 55.2727 6.30199C55.7857 5.99251 55.9966 5.77264 56.2633 5.31139C56.5267 5.7714 56.7374 5.99196 57.2539 6.30199C56.779 6.5878 56.5597 6.80202 56.2633 7.29258Z" fill="#F4E167"/>
<path d="M76.0753 21.4912C75.7819 21.007 75.5778 20.7766 75.0847 20.5006C75.5977 20.1911 75.8086 19.9713 76.0753 19.51C76.3387 19.97 76.5494 20.1906 77.0659 20.5006C76.591 20.7864 76.3717 21.0006 76.0753 21.4912Z" fill="#F4E167"/>
<path d="M8.05394 22.6483C7.61338 21.9212 7.30702 21.5754 6.56665 21.161C7.33687 20.6963 7.65347 20.3662 8.05394 19.6737C8.44944 20.3643 8.76579 20.6955 9.54124 21.161C8.82816 21.5901 8.499 21.9117 8.05394 22.6483Z" fill="#F4E167"/>
</g>
<defs>
<filter id="filter0_d_2801_673" x="0.474365" y="1.52588e-05" width="87.2869" height="48.4327" filterUnits="userSpaceOnUse" color-interpolation-filters="sRGB">
<feFlood flood-opacity="0" result="BackgroundImageFix"/>
<feColorMatrix in="SourceAlpha" type="matrix" values="0 0 0 0 0 0 0 0 0 0 0 0 0 0 0 0 0 0 127 0" result="hardAlpha"/>
<feOffset dy="1"/>
<feGaussianBlur stdDeviation="2"/>
<feComposite in2="hardAlpha" operator="out"/>
<feColorMatrix type="matrix" values="0 0 0 0 0 0 0 0 0 0 0 0 0 0 0 0 0 0 0.1 0"/>
<feBlend mode="normal" in2="BackgroundImageFix" result="effect1_dropShadow_2801_673"/>
<feBlend mode="normal" in="SourceGraphic" in2="effect1_dropShadow_2801_673" result="shape"/>
</filter>
<filter id="filter1_i_2801_673" x="27.1573" y="4.06398" width="32.7592" height="34.2507" filterUnits="userSpaceOnUse" color-interpolation-filters="sRGB">
<feFlood flood-opacity="0" result="BackgroundImageFix"/>
<feBlend mode="normal" in="SourceGraphic" in2="BackgroundImageFix" result="shape"/>
<feColorMatrix in="SourceAlpha" type="matrix" values="0 0 0 0 0 0 0 0 0 0 0 0 0 0 0 0 0 0 127 0" result="hardAlpha"/>
<feOffset dy="2.39465"/>
<feGaussianBlur stdDeviation="1.19733"/>
<feComposite in2="hardAlpha" operator="arithmetic" k2="-1" k3="1"/>
<feColorMatrix type="matrix" values="0 0 0 0 0.988235 0 0 0 0 0.647843 0 0 0 0 0.137255 0 0 0 1 0"/>
<feBlend mode="normal" in2="shape" result="effect1_innerShadow_2801_673"/>
</filter>
<filter id="filter2_d_2801_673" x="28.0368" y="5.45854" width="44.1847" height="43.6056" filterUnits="userSpaceOnUse" color-interpolation-filters="sRGB">
<feFlood flood-opacity="0" result="BackgroundImageFix"/>
<feColorMatrix in="SourceAlpha" type="matrix" values="0 0 0 0 0 0 0 0 0 0 0 0 0 0 0 0 0 0 127 0" result="hardAlpha"/>
<feOffset dx="6.58529" dy="7.18395"/>
<feGaussianBlur stdDeviation="7.18395"/>
<feComposite in2="hardAlpha" operator="out"/>
<feColorMatrix type="matrix" values="0 0 0 0 0.858333 0 0 0 0 0 0 0 0 0 0 0 0 0 0.2 0"/>
<feBlend mode="normal" in2="BackgroundImageFix" result="effect1_dropShadow_2801_673"/>
<feBlend mode="normal" in="SourceGraphic" in2="effect1_dropShadow_2801_673" result="shape"/>
</filter>
<filter id="filter3_i_2801_673" x="4.47437" y="18.831" width="25.2991" height="26.451" filterUnits="userSpaceOnUse" color-interpolation-filters="sRGB">
<feFlood flood-opacity="0" result="BackgroundImageFix"/>
<feBlend mode="normal" in="SourceGraphic" in2="BackgroundImageFix" result="shape"/>
<feColorMatrix in="SourceAlpha" type="matrix" values="0 0 0 0 0 0 0 0 0 0 0 0 0 0 0 0 0 0 127 0" result="hardAlpha"/>
<feOffset dy="1.84933"/>
<feGaussianBlur stdDeviation="0.924667"/>
<feComposite in2="hardAlpha" operator="arithmetic" k2="-1" k3="1"/>
<feColorMatrix type="matrix" values="0 0 0 0 0.988235 0 0 0 0 0.647843 0 0 0 0 0.137255 0 0 0 1 0"/>
<feBlend mode="normal" in2="shape" result="effect1_innerShadow_2801_673"/>
</filter>
<filter id="filter4_d_2801_673" x="5.15348" y="19.9081" width="34.1228" height="33.6756" filterUnits="userSpaceOnUse" color-interpolation-filters="sRGB">
<feFlood flood-opacity="0" result="BackgroundImageFix"/>
<feColorMatrix in="SourceAlpha" type="matrix" values="0 0 0 0 0 0 0 0 0 0 0 0 0 0 0 0 0 0 127 0" result="hardAlpha"/>
<feOffset dx="5.08567" dy="5.548"/>
<feGaussianBlur stdDeviation="5.548"/>
<feComposite in2="hardAlpha" operator="out"/>
<feColorMatrix type="matrix" values="0 0 0 0 0.858333 0 0 0 0 0 0 0 0 0 0 0 0 0 0.2 0"/>
<feBlend mode="normal" in2="BackgroundImageFix" result="effect1_dropShadow_2801_673"/>
<feBlend mode="normal" in="SourceGraphic" in2="effect1_dropShadow_2801_673" result="shape"/>
</filter>
<filter id="filter5_i_2801_673" x="58.4622" y="18.8311" width="25.2991" height="26.451" filterUnits="userSpaceOnUse" color-interpolation-filters="sRGB">
<feFlood flood-opacity="0" result="BackgroundImageFix"/>
<feBlend mode="normal" in="SourceGraphic" in2="BackgroundImageFix" result="shape"/>
<feColorMatrix in="SourceAlpha" type="matrix" values="0 0 0 0 0 0 0 0 0 0 0 0 0 0 0 0 0 0 127 0" result="hardAlpha"/>
<feOffset dy="1.84933"/>
<feGaussianBlur stdDeviation="0.924667"/>
<feComposite in2="hardAlpha" operator="arithmetic" k2="-1" k3="1"/>
<feColorMatrix type="matrix" values="0 0 0 0 0.988235 0 0 0 0 0.647843 0 0 0 0 0.137255 0 0 0 1 0"/>
<feBlend mode="normal" in2="shape" result="effect1_innerShadow_2801_673"/>
</filter>
<filter id="filter6_d_2801_673" x="59.1413" y="19.9081" width="34.1228" height="33.6756" filterUnits="userSpaceOnUse" color-interpolation-filters="sRGB">
<feFlood flood-opacity="0" result="BackgroundImageFix"/>
<feColorMatrix in="SourceAlpha" type="matrix" values="0 0 0 0 0 0 0 0 0 0 0 0 0 0 0 0 0 0 127 0" result="hardAlpha"/>
<feOffset dx="5.08567" dy="5.548"/>
<feGaussianBlur stdDeviation="5.548"/>
<feComposite in2="hardAlpha" operator="out"/>
<feColorMatrix type="matrix" values="0 0 0 0 0.858333 0 0 0 0 0 0 0 0 0 0 0 0 0 0.2 0"/>
<feBlend mode="normal" in2="BackgroundImageFix" result="effect1_dropShadow_2801_673"/>
<feBlend mode="normal" in="SourceGraphic" in2="effect1_dropShadow_2801_673" result="shape"/>
</filter>
</defs>
</svg>
